<svg width="1240" height="800" viewBox="0 0 1240 800" fill="none" xmlns="http://www.w3.org/2000/svg">
<g clip-path="url(#clip0_5667_17176)">
<mask id="mask0_5667_17176" style="mask-type:luminance" maskUnits="userSpaceOnUse" x="0" y="0" width="1240" height="800">
<path d="M1240 0H0V800H1240V0Z" fill="white"/>
</mask>
<g mask="url(#mask0_5667_17176)">
<mask id="mask1_5667_17176" style="mask-type:luminance" maskUnits="userSpaceOnUse" x="-100" y="-196" width="1440" height="1018">
<path d="M1340 -196H-100V822H1340V-196Z" fill="white"/>
</mask>
<g mask="url(#mask1_5667_17176)">
<path d="M1168.57 887.651L1168.58 887.654C1170.29 889.314 1172.06 891.927 1174.97 893.765C1182.31 898.385 1192.9 900.987 1201.62 900.298C1215.09 898.532 1225.88 891.003 1232.35 880.746L1246.23 858.737C1257.31 841.143 1254.8 819.049 1242.9 805.388C1169.25 730.328 1159.42 617.496 1213.58 526.659C1221.06 514.147 1230.06 502.586 1240.09 492.014C1240.14 491.963 1240.18 491.92 1240.23 491.868C1241.32 490.732 1242.38 489.59 1243.49 488.476C1262.28 469.276 1283.76 453.992 1306.94 442.863C1370.09 412.555 1445.44 412.777 1511.08 447.786C1536.79 461.488 1560.33 480.198 1579.31 502.068C1580.54 503.534 1581.75 505.009 1582.95 506.493C1583.54 507.205 1584.07 507.941 1584.66 508.666C1587.23 511.931 1589.82 515.174 1592.19 518.556C1595.28 522.897 1598.22 527.328 1600.93 531.845C1611.31 549.235 1629.14 557.962 1648.74 550.757L1674.48 542.929C1686.21 539.351 1697.37 529.557 1701.5 518.025C1705.58 506.663 1705.21 492.989 1699.62 482.02C1698.88 480.699 1698.11 479.383 1697.35 478.071C1694.89 473.781 1692.32 469.566 1689.69 465.4C1688.04 462.819 1686.4 460.238 1684.69 457.694C1681.77 453.359 1678.74 449.087 1675.62 444.897C1674.08 442.819 1672.52 440.738 1670.92 438.697C1667.08 433.774 1663.14 428.926 1659.03 424.234C1657.89 422.924 1656.7 421.654 1655.54 420.354C1651.37 415.722 1647.09 411.169 1642.67 406.775C1642.05 406.145 1641.45 405.51 1640.81 404.89C1639.99 404.09 1639.11 403.363 1638.28 402.56C1636.61 401.084 1635 399.689 1632.81 398.35C1625.41 393.831 1625.49 393.758 1632.89 398.276C1635.08 399.616 1636.68 401.023 1638.35 402.487C1616.18 381.201 1591.22 362.823 1564.12 348.364C1467.97 297.099 1355.03 296.974 1260.57 341.174L1260.78 341.19C1224.54 358.038 1191.31 381.583 1163.12 410.137C1157.52 415.82 1152.13 421.692 1146.94 427.75C1146.86 427.823 1146.8 427.912 1146.73 427.985C1144.55 430.545 1142.55 433.259 1140.45 435.866C1136.63 443.479 1136.61 443.513 1140.43 435.9C1132.51 445.743 1124.99 455.905 1118.26 466.594C1034.13 600.104 1055.52 777.498 1168.58 887.642L1168.57 887.651Z" fill="#F0DEE8"/>
<path d="M183.546 -127.778L183.539 -127.782C182.703 -128.975 181.94 -130.748 180.4 -132.186C176.525 -135.803 170.458 -138.582 165.143 -139.17C156.849 -139.655 149.504 -136.371 144.439 -130.953L133.578 -119.325C124.902 -110.029 123.872 -96.4699 129.451 -86.8979C165.079 -33.3562 158.032 35.5474 115.069 83.8937C109.143 90.5514 102.409 96.4623 95.1697 101.661C95.1317 101.686 95.104 101.707 95.0659 101.732C94.2846 102.29 93.5173 102.855 92.7182 103.396C79.228 112.772 64.5723 119.487 49.3719 123.512C7.96111 134.467 -37.2744 125.685 -72.6873 97.1206C-86.5548 85.9392 -98.5495 71.9981 -107.435 56.6837C-108.007 55.6617 -108.568 54.6362 -109.119 53.607C-109.391 53.1116 -109.624 52.6086 -109.893 52.1062C-111.063 49.8498 -112.248 47.6041 -113.283 45.3007C-114.641 42.3384 -115.894 39.3399 -117.005 36.3152C-121.247 24.6776 -130.957 17.3887 -143.551 19.4677L-159.912 21.2151C-167.373 22.0167 -175.199 26.6193 -179.006 33.0715C-182.757 39.4288 -184.108 47.6845 -182.007 54.915C-181.713 55.7939 -181.401 56.6727 -181.097 57.548C-180.114 60.407 -179.054 63.2335 -177.95 66.0385C-177.257 67.7777 -176.564 69.5168 -175.83 71.2415C-174.573 74.1806 -173.244 77.0944 -171.852 79.969C-171.164 81.3941 -170.468 82.8227 -169.738 84.2334C-168.001 87.6303 -166.188 90.9949 -164.26 94.2848C-163.725 95.2025 -163.155 96.1023 -162.609 97.0164C-160.633 100.278 -158.588 103.503 -156.435 106.651C-156.133 107.1 -155.848 107.55 -155.535 107.996C-155.136 108.57 -154.686 109.109 -154.281 109.686C-153.45 110.764 -152.645 111.786 -151.483 112.843C-147.556 116.407 -147.607 116.442 -151.535 112.878C-152.696 111.822 -153.499 110.793 -154.333 109.722C-143.461 125.052 -130.573 138.957 -115.954 150.754C-64.0855 192.584 3.74155 205.623 65.5497 189.916L65.4272 189.882C89.1308 183.922 111.793 173.593 132.004 159.678C136.023 156.907 139.935 153.999 143.748 150.956C143.8 150.92 143.848 150.874 143.9 150.839C145.502 149.551 147.012 148.15 148.572 146.825C151.743 142.691 151.76 142.673 148.59 146.807C154.477 141.804 160.16 136.563 165.432 130.915C231.293 60.3763 238.807 -48.6356 183.536 -127.775L183.546 -127.778Z" fill="#C92876" fill-opacity="0.11"/>
<path d="M298.754 1092.6L298.761 1092.59C300.417 1092.18 302.676 1092.1 304.897 1091.02C310.483 1088.31 316.078 1082.85 318.96 1077.29C322.987 1068.43 322.494 1059.02 318.709 1051.2L310.581 1034.43C304.08 1021.03 289.698 1014.19 276.885 1016.25C203.357 1032.61 131.032 995.865 96.3119 928.535C91.5346 919.253 87.9143 909.402 85.2851 899.3C85.2739 899.248 85.2622 899.208 85.2511 899.156C84.9707 898.067 84.6771 896.991 84.423 895.89C79.864 877.195 78.7044 858.349 80.7142 840.042C86.1993 790.17 114.866 744.44 161.01 717.784C179.074 707.344 199.366 700.113 219.847 696.859C221.205 696.665 222.562 696.484 223.919 696.316C224.575 696.228 225.223 696.185 225.885 696.103C228.844 695.775 231.797 695.428 234.751 695.267C238.56 695.032 242.366 694.927 246.139 694.988C260.645 695.258 272.703 687.721 275.741 673.081L280.728 654.466C282.998 645.975 281.267 635.482 275.821 628.603C270.456 621.823 262.004 616.867 253.216 616.114C252.132 616.065 251.04 616.035 249.955 615.999C246.417 615.868 242.881 615.834 239.35 615.859C237.158 615.883 234.965 615.907 232.771 615.982C229.03 616.116 225.285 616.34 221.557 616.649C219.71 616.801 217.855 616.959 216.006 617.162C211.561 617.628 207.12 618.191 202.713 618.911C201.484 619.109 200.26 619.353 199.031 619.564C194.635 620.348 190.248 621.223 185.901 622.249C185.282 622.39 184.67 622.512 184.051 622.665C183.256 622.859 182.477 623.124 181.675 623.323C180.147 623.777 178.691 624.226 177.047 625.05C171.496 627.839 171.479 627.768 177.03 624.979C178.674 624.154 180.137 623.712 181.658 623.252C160.322 628.669 139.694 636.89 120.641 647.893C53.0634 686.939 10.2207 755.562 1.32927 829.726L1.41732 829.607C-2.06244 858.022 -0.328853 887.141 6.35744 915.094C7.69057 920.653 9.21961 926.154 10.9379 931.604C10.9549 931.675 10.9848 931.747 11.0018 931.819C11.7331 934.113 12.6279 936.354 13.4184 938.617C16.5995 943.824 16.6115 943.851 13.4305 938.643C16.4157 947.187 19.7479 955.606 23.697 963.748C73.0148 1065.46 188.973 1119.62 298.754 1092.59V1092.6Z" fill="#025960" fill-opacity="0.11"/>
<path d="M18.6097 -25.2786H18.5997C16.9697 -26.1886 15.0997 -27.8086 12.5197 -28.6086C6.02969 -30.6186 -2.52032 -30.4386 -8.98032 -28.1486C-18.8203 -24.0786 -25.4604 -16.1886 -28.2804 -7.1086L-34.3203 12.3714C-39.1403 27.9414 -32.7603 44.1614 -20.9803 52.0914C50.0097 93.981 80.3401 177.421 57.7597 257.191C54.6397 268.181 50.1697 278.761 44.7197 288.801C44.6897 288.851 44.6697 288.891 44.6397 288.941C44.0497 290.021 43.4797 291.101 42.8597 292.171C32.5297 310.521 19.3697 326.451 4.07968 339.581C-37.5803 375.341 -94.6703 390.461 -151.47 377.271C-173.71 372.111 -195.33 362.721 -214.13 350.011C-215.36 349.151 -216.58 348.281 -217.79 347.401C-218.38 346.981 -218.93 346.531 -219.52 346.101C-222.13 344.151 -224.75 342.221 -227.23 340.141C-230.45 337.481 -233.57 334.721 -236.54 331.851C-247.93 320.791 -263.2 317.801 -276.57 327.231L-294.47 338.381C-302.63 343.471 -309.09 353.151 -309.88 362.721C-310.66 372.151 -307.61 382.431 -301.15 389.601C-300.32 390.451 -299.47 391.291 -298.63 392.131C-295.9 394.881 -293.1 397.551 -290.26 400.171C-288.49 401.791 -286.72 403.411 -284.91 404.991C-281.82 407.681 -278.66 410.301 -275.45 412.841C-273.86 414.101 -272.26 415.361 -270.63 416.581C-266.73 419.531 -262.76 422.401 -258.7 425.121C-257.57 425.881 -256.41 426.601 -255.27 427.351C-251.17 430.011 -247.01 432.591 -242.77 435.021C-242.17 435.371 -241.59 435.731 -240.98 436.071C-240.2 436.511 -239.38 436.881 -238.59 437.321C-237.03 438.101 -235.53 438.831 -233.6 439.401C-227.08 441.321 -227.12 441.391 -233.64 439.471C-235.57 438.901 -237.07 438.161 -238.63 437.391C-217.53 449.011 -194.9 457.861 -171.45 463.311C-88.2603 482.621 -2.73032 459.801 59.8097 407.171L59.6497 407.201C83.6701 387.091 104.05 362.521 119.6 335.181C122.69 329.741 125.58 324.201 128.28 318.561C128.32 318.491 128.35 318.411 128.39 318.341C129.52 315.961 130.48 313.501 131.54 311.101C132.89 304.561 132.9 304.531 131.55 311.071C135.55 302.011 139.18 292.791 142.11 283.331C178.72 165.171 126.54 35.1914 18.5997 -25.2686L18.6097 -25.2786Z" fill="#C92876" fill-opacity="0.05"/>
<path d="M1543.49 273.428V273.414C1545.68 271.699 1548.97 270.062 1551.55 266.98C1558.04 259.225 1562.7 247.385 1563.26 237.203C1563.33 221.359 1556.31 207.716 1545.47 198.633L1522.2 179.16C1503.59 163.607 1477.67 163.055 1460.02 174.673C1361.78 248.077 1229.84 241.817 1133.32 165.034C1120.03 154.443 1108.07 142.235 1097.42 128.99C1097.37 128.921 1097.33 128.87 1097.28 128.8C1096.13 127.371 1094.98 125.968 1093.87 124.503C1074.61 99.7904 1060.3 72.582 1051.06 44.0569C1025.89 -33.6558 1037.92 -120.702 1088.63 -191.101C1108.48 -218.668 1133.78 -242.956 1162.01 -261.467C1163.9 -262.662 1165.79 -263.837 1167.7 -264.993C1168.61 -265.562 1169.54 -266.058 1170.47 -266.622C1174.65 -269.085 1178.8 -271.574 1183.08 -273.784C1188.58 -276.677 1194.16 -279.376 1199.8 -281.806C1221.52 -291.092 1234.39 -310.337 1229.12 -334.103L1224.1 -365.074C1221.79 -379.197 1212.22 -393.621 1199.54 -400.198C1187.04 -406.682 1171.18 -408.396 1157.63 -403.644C1155.99 -402.992 1154.35 -402.308 1152.71 -401.637C1147.37 -399.468 1142.1 -397.157 1136.87 -394.762C1133.63 -393.262 1130.39 -391.762 1127.19 -390.185C1121.72 -387.487 1116.31 -384.653 1110.98 -381.705C1108.34 -380.245 1105.69 -378.772 1103.08 -377.235C1096.79 -373.575 1090.58 -369.773 1084.51 -365.761C1082.82 -364.646 1081.17 -363.467 1079.48 -362.332C1073.48 -358.231 1067.55 -354.001 1061.78 -349.576C1060.95 -348.953 1060.13 -348.364 1059.31 -347.722C1058.26 -346.903 1057.28 -345.99 1056.22 -345.158C1054.26 -343.465 1052.39 -341.825 1050.5 -339.502C1044.12 -331.655 1044.05 -331.75 1050.43 -339.598C1052.32 -341.92 1054.2 -343.554 1056.15 -345.253C1028.09 -322.959 1002.95 -296.975 982.008 -267.913C907.747 -164.802 889.967 -34.2964 926.299 81.7614L926.349 81.5247C940.161 126.04 962.183 168.118 990.781 205.157C996.473 212.521 1002.42 219.668 1008.61 226.611C1008.68 226.706 1008.77 226.794 1008.85 226.889C1011.47 229.806 1014.29 232.536 1016.98 235.368C1025.18 240.975 1025.21 241.006 1017.01 235.399C1027.15 246.09 1037.72 256.366 1049.02 265.818C1190.18 383.895 1398.53 386.875 1543.48 273.409L1543.49 273.428Z" fill="#025960" fill-opacity="0.07"/>
<path d="M-232.921 176.793L-232.926 176.812C-235.499 179.461 -239.552 182.205 -242.401 186.725C-249.564 198.097 -253.598 214.526 -252.53 228.042C-249.792 248.928 -238.118 265.654 -222.215 275.691L-188.091 297.204C-160.812 314.385 -126.558 310.497 -105.376 292.048C11.0005 177.846 185.94 162.606 326.779 246.587C346.178 258.174 364.102 272.132 380.493 287.685C380.574 287.768 380.64 287.827 380.72 287.909C382.481 289.59 384.253 291.232 385.98 292.964C415.748 322.096 439.444 355.397 456.701 391.334C503.69 489.243 503.347 606.069 449.067 707.849C427.822 747.703 398.814 784.207 364.906 813.623C362.633 815.533 360.346 817.419 358.045 819.281C356.941 820.193 355.8 821.014 354.676 821.921C349.614 825.91 344.586 829.928 339.342 833.602C332.612 838.393 325.741 842.942 318.738 847.147C291.776 863.249 278.246 890.896 289.416 921.271L301.553 961.181C307.1 979.379 322.286 996.678 340.165 1003.09C357.782 1009.4 378.983 1008.84 395.989 1000.17C398.037 999.015 400.077 997.821 402.112 996.646C408.764 992.837 415.299 988.854 421.758 984.768C425.759 982.216 429.76 979.663 433.706 977.013C440.427 972.486 447.05 967.789 453.547 962.956C456.768 960.563 459.994 958.15 463.16 955.66C470.792 949.718 478.308 943.602 485.583 937.236C487.614 935.466 489.583 933.618 491.6 931.824C498.781 925.352 505.84 918.724 512.653 911.866C513.629 910.898 514.614 909.975 515.576 908.983C516.816 907.718 517.942 906.34 519.187 905.056C521.476 902.475 523.639 899.982 525.716 896.586C532.722 885.111 532.836 885.223 525.829 896.698C523.752 900.094 521.57 902.582 519.301 905.168C552.303 870.8 580.798 832.089 603.216 790.071C682.7 640.999 682.893 465.889 614.364 319.447L614.339 319.768C588.218 263.576 551.711 212.057 507.44 168.349C498.629 159.66 489.524 151.301 480.132 143.255C480.018 143.143 479.881 143.045 479.768 142.932C475.799 139.555 471.591 136.461 467.548 133.207C455.745 127.28 455.693 127.245 467.496 133.173C452.235 120.892 436.479 109.236 419.906 98.7947C212.906 -31.6465 -62.1345 1.5191 -232.907 176.818L-232.921 176.793Z" fill="#025960" fill-opacity="0.04"/>
</g>
</g>
</g>
<defs>
<clipPath id="clip0_5667_17176">
<rect width="1240" height="800" fill="white"/>
</clipPath>
</defs>
</svg>
