<svg width="172" height="63" viewBox="0 0 172 63" fill="none" xmlns="http://www.w3.org/2000/svg">
<path d="M30.4305 14.6039C30.2298 14.5451 30.1581 14.4103 29.9574 14.3502C29.4538 14.2007 28.7934 14.2234 28.2977 14.4076C27.5416 14.7334 27.0366 15.3528 26.8293 16.0604L26.3828 17.5783C26.0267 18.7918 26.5357 20.0428 27.4539 20.6462C32.9792 23.8222 35.5598 30.3078 33.7473 36.477C33.5732 37.0711 33.3553 37.6531 33.1014 38.2165C33.7154 37.4636 34.7811 37.0444 35.8574 37.2953L37.3923 37.6531C38.1072 37.82 38.7517 38.2899 39.1211 39.0282C39.3337 39.5155 39.3948 40.175 39.2765 40.689C39.2287 40.8932 39.0998 40.9747 39.0533 41.1789C37.6726 44.1387 35.6342 46.6432 33.1798 48.5737C33.4974 48.4735 33.7978 48.3213 34.0516 48.1117C36.987 45.5752 39.1915 42.1602 40.2904 38.4168C42.9946 29.2104 38.8301 19.1803 30.4318 14.6025L30.4305 14.6039Z" fill="#FF5D81"/>
<path d="M31.9099 48.685C31.175 48.5795 30.4575 48.0362 30.1027 47.3807L29.324 45.9442C28.6582 44.8655 28.9107 43.6212 29.8156 42.7895C31.1764 41.5319 32.3178 39.9593 33.1018 38.2197C33.0168 38.3252 32.9397 38.436 32.872 38.5535C30.0415 44.2821 23.7495 47.2512 17.5119 45.7973C15.0589 45.2246 12.772 43.935 11.01 42.2248C10.8492 42.0673 10.6751 41.9338 10.493 41.823C11.402 42.7882 12.4637 43.6346 13.665 44.3235C14.5832 44.9269 15.0935 46.1778 14.7387 47.3914L14.2935 48.9093C14.0862 49.6169 13.5813 50.2363 12.8265 50.5621C12.3308 50.7463 11.6704 50.7703 11.1668 50.6208C10.9661 50.5621 10.893 50.4272 10.6937 50.3685C9.52565 49.733 8.43999 48.9921 7.44336 48.163C9.89373 50.2403 12.8424 51.7409 15.9705 52.4712C22.1084 53.9023 28.4257 52.3163 33.1789 48.5769C32.767 48.7064 32.3245 48.7464 31.9099 48.6863V48.685Z" fill="#DF1C4D"/>
<path d="M39.0524 41.181C39.1003 40.9767 39.2292 40.8953 39.2757 40.691C39.3939 40.177 39.3328 39.5162 39.1202 39.0302C38.7521 38.292 38.1063 37.822 37.3914 37.6551L35.8566 37.2974C34.7802 37.0464 33.7145 37.4669 33.1006 38.2185C32.3166 39.9581 31.1751 41.5307 29.8144 42.7883C28.9108 43.6201 28.657 44.8643 29.3227 45.943L30.1014 47.3795C30.4562 48.035 31.1738 48.5797 31.9086 48.6838C32.3232 48.7426 32.7657 48.7038 33.1777 48.5743C35.632 46.6439 37.6704 44.1394 39.0511 41.1796L39.0524 41.181Z" fill="#FF134F"/>
<path d="M6.36138 17.4893C6.02651 17.8083 5.70095 18.1381 5.38867 18.4798C5.40728 18.4612 5.42588 18.4438 5.44448 18.4264C5.76872 18.1261 6.07302 17.8123 6.36138 17.4893Z" fill="#28B8C4"/>
<path d="M2.9375 21.7571L3.51156 20.8613C3.31356 21.155 3.12088 21.4527 2.9375 21.7571Z" fill="#28B8C4"/>
<path d="M5.27467 44.669C5.3358 43.9268 5.83411 43.1751 6.46531 42.78L7.84729 41.9149C8.69111 41.3168 9.67976 41.3288 10.493 41.8214C7.22141 38.3463 5.94573 33.3253 7.36094 28.4952C7.76092 27.1321 8.38282 25.8344 9.16949 24.6623C8.40142 25.5287 7.0965 25.7143 6.09589 25.0842L3.81162 23.8332C2.97313 23.3686 2.5758 22.3407 2.88808 21.832C2.00308 23.3112 1.30145 24.9026 0.816425 26.558C-1.50771 34.4868 1.26291 43.0216 7.44067 48.1601C6.92641 47.7249 6.43341 47.2657 5.96699 46.781C5.45273 46.2243 5.21221 45.4113 5.27334 44.6677L5.27467 44.669Z" fill="#28B8C4"/>
<path d="M10.4775 23.0033C10.738 22.7176 11.0091 22.4426 11.2895 22.1836C11.3891 22.0915 11.4795 21.994 11.5632 21.8926C11.1858 22.229 10.8204 22.6095 10.4775 23.0033Z" fill="#28B8C4"/>
<path d="M11.167 50.6206C11.6706 50.7702 12.3311 50.7461 12.8267 50.5619C13.5815 50.2348 14.0865 49.6154 14.2938 48.9091L14.7389 47.3912C15.095 46.1777 14.5834 44.9267 13.6652 44.3233C12.4639 43.6344 11.4022 42.788 10.4933 41.8228C9.68003 41.3315 8.69005 41.3195 7.84757 41.9163L6.46558 42.7814C5.83571 43.1765 5.3374 43.9281 5.27494 44.6704C5.21382 45.4127 5.45434 46.2257 5.9686 46.7838C6.43502 47.2684 6.92935 47.7276 7.44228 48.1629C8.4389 48.9919 9.52456 49.7328 10.6926 50.3683C10.8933 50.4271 10.9663 50.5619 11.1657 50.6206H11.167Z" fill="#C92876"/>
<path d="M3.61873 20.6916L3.50977 20.8612C4.07718 20.0215 4.70439 19.2244 5.38741 18.4795C4.68711 19.1564 3.61873 20.6916 3.61873 20.6916Z" fill="#28B8C4"/>
<path d="M2.89762 21.8182C2.89762 21.8182 2.89231 21.8289 2.88965 21.8329C2.90559 21.8076 2.92154 21.7822 2.93616 21.7568L2.89762 21.8169V21.8182Z" fill="#28B8C4"/>
<path d="M9.19104 16.2876C9.92589 16.3918 10.6435 16.9365 10.9983 17.5906L11.7783 19.0271C12.3709 19.987 12.2354 21.0764 11.563 21.8921C11.5657 21.8894 11.5683 21.8867 11.571 21.8854C16.8691 17.1674 17.7036 8.72736 15.3303 1.74783C15.2226 1.5676 15.2598 1.41942 15.1535 1.23919C14.8838 0.786612 14.3828 0.354063 13.8938 0.152474C13.1178 -0.122542 12.3298 -0.0103999 11.6999 0.367413L10.3485 1.18045C9.26812 1.8306 8.79904 3.09755 9.06746 4.16557C10.5597 8.89958 9.56445 13.8966 6.36328 17.4892C6.58918 17.2742 6.81774 17.0633 7.05295 16.859C7.63631 16.3757 8.45886 16.1808 9.19237 16.2863L9.19104 16.2876Z" fill="#28B8C4"/>
<path d="M9.33169 24.4611C9.66655 23.9899 10.0559 23.4866 10.4771 23.002C10.0054 23.5186 9.56556 24.074 9.1709 24.6627C9.22804 24.5986 9.28119 24.5319 9.33169 24.4611Z" fill="#28B8C4"/>
<path d="M3.81349 23.835L6.09776 25.0859C7.09837 25.7161 8.40329 25.5305 9.17136 24.6641C9.56735 24.0753 10.0059 23.52 10.4776 23.0033C10.8204 22.6095 11.1859 22.229 11.5633 21.8926C12.2357 21.0769 12.3725 19.9875 11.7785 19.0276L10.9985 17.5911C10.6437 16.9356 9.92481 16.3922 9.19129 16.2881C8.45777 16.184 7.63522 16.3775 7.05186 16.8608C6.81666 17.0651 6.5881 17.276 6.3622 17.491C6.07384 17.8154 5.76954 18.1291 5.4453 18.4282C5.4267 18.4455 5.40809 18.4629 5.38949 18.4816C4.70647 19.2265 4.07926 20.0235 3.51185 20.8632L2.93779 21.759C2.92184 21.7844 2.9059 21.8098 2.89128 21.8351C2.579 22.3425 2.97633 23.3718 3.81482 23.8364L3.81349 23.835Z" fill="#0FD7E4"/>
<path d="M51.1263 31.0666C51.0373 30.8503 51.0107 30.6674 50.9921 30.5393C50.9881 30.5139 50.9841 30.4792 50.9802 30.4619C50.7569 30.0093 50.3064 29.53 49.8746 29.2844C49.2168 28.9706 48.5192 28.964 47.9066 29.2643L46.1153 30.1441C45.1413 30.6221 44.5738 31.7582 44.7572 32.8529C46.8236 41.5893 42.9261 50.3097 35.272 54.0665C32.3167 55.5177 28.8325 56.1064 25.4585 55.7259C24.3038 55.5924 23.4188 56.1865 23.149 57.2746L23.1344 57.3266L22.5032 59.3652C22.2933 60.0448 22.4128 60.9446 22.7889 61.5066C23.2221 62.1554 23.9065 62.6294 24.5749 62.7468C29.3122 63.4451 34.2421 62.6908 38.4585 60.6201C48.9005 55.4936 54.2199 43.0739 51.125 31.0666H51.1263Z" fill="#036F78"/>
<path d="M68.124 27.5002H65.8975L65.9121 26.3503H68.124C68.8857 26.3503 69.5205 26.1917 70.0283 25.8743C70.5361 25.552 70.917 25.1028 71.1709 24.5266C71.4297 23.9456 71.5591 23.2668 71.5591 22.4905V21.8386C71.5591 21.2283 71.4858 20.6863 71.3394 20.2126C71.1929 19.7341 70.978 19.3313 70.6948 19.0042C70.4116 18.6721 70.0649 18.4207 69.6548 18.2498C69.2495 18.0789 68.7832 17.9934 68.2559 17.9934H65.8535V16.8362H68.2559C68.9541 16.8362 69.5913 16.9534 70.1675 17.1877C70.7437 17.4172 71.2393 17.7517 71.6543 18.1912C72.0742 18.6257 72.3965 19.1531 72.6211 19.7732C72.8457 20.3884 72.958 21.0818 72.958 21.8533V22.4905C72.958 23.262 72.8457 23.9578 72.6211 24.5779C72.3965 25.1931 72.0718 25.718 71.647 26.1526C71.2271 26.5872 70.7192 26.9216 70.1235 27.156C69.5327 27.3855 68.8662 27.5002 68.124 27.5002ZM66.6519 16.8362V27.5002H65.2383V16.8362H66.6519ZM79.5498 26.1453V22.0657C79.5498 21.7532 79.4863 21.4822 79.3594 21.2527C79.2373 21.0183 79.0518 20.8376 78.8027 20.7107C78.5537 20.5837 78.2461 20.5203 77.8799 20.5203C77.5381 20.5203 77.2378 20.5789 76.979 20.696C76.7251 20.8132 76.5249 20.967 76.3784 21.1575C76.2368 21.3479 76.166 21.553 76.166 21.7727H74.811C74.811 21.4895 74.8843 21.2087 75.0308 20.9304C75.1772 20.6521 75.3872 20.4006 75.6606 20.176C75.939 19.9465 76.271 19.7659 76.6567 19.634C77.0474 19.4973 77.4819 19.429 77.9604 19.429C78.5366 19.429 79.0444 19.5266 79.4839 19.7219C79.9282 19.9172 80.2749 20.2126 80.5239 20.6082C80.7778 20.9988 80.9048 21.4895 80.9048 22.0803V25.7717C80.9048 26.0354 80.9268 26.3162 80.9707 26.614C81.0195 26.9119 81.0903 27.1682 81.1831 27.3831V27.5002H79.7695C79.7012 27.344 79.6475 27.1365 79.6084 26.8777C79.5693 26.614 79.5498 26.3699 79.5498 26.1453ZM79.7842 22.6956L79.7988 23.6477H78.4292C78.0435 23.6477 77.6992 23.6794 77.3965 23.7429C77.0938 23.8015 76.8398 23.8918 76.6348 24.0139C76.4297 24.136 76.2734 24.2898 76.166 24.4753C76.0586 24.656 76.0049 24.8684 76.0049 25.1125C76.0049 25.3616 76.061 25.5886 76.1733 25.7937C76.2856 25.9988 76.4541 26.1624 76.6787 26.2844C76.9082 26.4016 77.189 26.4602 77.521 26.4602C77.936 26.4602 78.3022 26.3723 78.6196 26.1965C78.937 26.0208 79.1885 25.8059 79.374 25.552C79.5645 25.2981 79.667 25.0515 79.6816 24.8123L80.2603 25.4641C80.2261 25.6692 80.1333 25.8962 79.9819 26.1453C79.8306 26.3943 79.6279 26.6335 79.374 26.863C79.125 27.0876 78.8271 27.2756 78.4805 27.427C78.1387 27.5735 77.7529 27.6467 77.3232 27.6467C76.7861 27.6467 76.3149 27.5417 75.9097 27.3318C75.5093 27.1218 75.1968 26.8411 74.9722 26.4895C74.7524 26.1331 74.6426 25.7351 74.6426 25.2957C74.6426 24.8708 74.7256 24.4973 74.8916 24.175C75.0576 23.8479 75.2969 23.5769 75.6094 23.3621C75.9219 23.1423 76.2979 22.9763 76.7373 22.864C77.1768 22.7517 77.6675 22.6956 78.2095 22.6956H79.7842ZM86.354 19.5754V20.6155H82.0693V19.5754H86.354ZM83.5195 17.6492H84.8745V25.5374C84.8745 25.8059 84.916 26.0085 84.999 26.1453C85.082 26.282 85.1895 26.3723 85.3213 26.4163C85.4531 26.4602 85.5947 26.4822 85.7461 26.4822C85.8584 26.4822 85.9756 26.4724 86.0977 26.4529C86.2246 26.4285 86.3198 26.4089 86.3833 26.3943L86.3906 27.5002C86.2832 27.5344 86.1416 27.5662 85.9658 27.5955C85.7949 27.6296 85.5874 27.6467 85.3433 27.6467C85.0112 27.6467 84.7061 27.5808 84.4277 27.449C84.1494 27.3171 83.9272 27.0974 83.7612 26.7898C83.6001 26.4773 83.5195 26.0574 83.5195 25.53V17.6492ZM87.438 23.6257V23.4573C87.438 22.886 87.521 22.3562 87.687 21.8679C87.853 21.3748 88.0923 20.9475 88.4048 20.5862C88.7173 20.22 89.0957 19.9368 89.54 19.7366C89.9844 19.5315 90.4824 19.429 91.0342 19.429C91.5908 19.429 92.0913 19.5315 92.5356 19.7366C92.9849 19.9368 93.3657 20.22 93.6782 20.5862C93.9956 20.9475 94.2373 21.3748 94.4033 21.8679C94.5693 22.3562 94.6523 22.886 94.6523 23.4573V23.6257C94.6523 24.197 94.5693 24.7268 94.4033 25.2151C94.2373 25.7034 93.9956 26.1306 93.6782 26.4968C93.3657 26.8582 92.9873 27.1414 92.543 27.3464C92.1035 27.5466 91.6055 27.6467 91.0488 27.6467C90.4922 27.6467 89.9917 27.5466 89.5474 27.3464C89.103 27.1414 88.7222 26.8582 88.4048 26.4968C88.0923 26.1306 87.853 25.7034 87.687 25.2151C87.521 24.7268 87.438 24.197 87.438 23.6257ZM88.793 23.4573V23.6257C88.793 24.0212 88.8394 24.3948 88.9321 24.7463C89.0249 25.093 89.1641 25.4006 89.3496 25.6692C89.54 25.9377 89.7769 26.1501 90.0601 26.3064C90.3433 26.4578 90.6729 26.5334 91.0488 26.5334C91.4199 26.5334 91.7446 26.4578 92.0229 26.3064C92.3062 26.1501 92.5405 25.9377 92.7261 25.6692C92.9116 25.4006 93.0508 25.093 93.1436 24.7463C93.2412 24.3948 93.29 24.0212 93.29 23.6257V23.4573C93.29 23.0667 93.2412 22.698 93.1436 22.3513C93.0508 21.9998 92.9092 21.6897 92.7188 21.4211C92.5332 21.1477 92.2988 20.9329 92.0156 20.7766C91.7373 20.6204 91.4102 20.5422 91.0342 20.5422C90.6631 20.5422 90.3359 20.6204 90.0527 20.7766C89.7744 20.9329 89.54 21.1477 89.3496 21.4211C89.1641 21.6897 89.0249 21.9998 88.9321 22.3513C88.8394 22.698 88.793 23.0667 88.793 23.4573ZM98.644 26.2771L100.812 19.5754H102.196L99.3472 27.5002H98.439L98.644 26.2771ZM96.835 19.5754L99.0688 26.3137L99.2227 27.5002H98.3145L95.4434 19.5754H96.835ZM105.727 26.6799L107.931 19.5754H109.381L106.203 28.7234C106.129 28.9187 106.032 29.1287 105.91 29.3533C105.792 29.5828 105.641 29.8 105.456 30.0051C105.27 30.2102 105.045 30.3762 104.782 30.5032C104.523 30.635 104.213 30.7009 103.852 30.7009C103.744 30.7009 103.607 30.6863 103.441 30.657C103.275 30.6277 103.158 30.6033 103.09 30.5837L103.083 29.4851C103.122 29.49 103.183 29.4949 103.266 29.4998C103.354 29.5095 103.415 29.5144 103.449 29.5144C103.756 29.5144 104.018 29.4729 104.232 29.3899C104.447 29.3118 104.628 29.1775 104.774 28.9871C104.926 28.8015 105.055 28.5452 105.163 28.218L105.727 26.6799ZM104.108 19.5754L106.166 25.7278L106.518 27.156L105.543 27.6541L102.628 19.5754H104.108ZM105.441 18.4036L106.862 16.2502H108.495L106.532 18.4036H105.441ZM120.968 24.1091H122.375C122.301 24.783 122.108 25.386 121.796 25.9182C121.483 26.4504 121.042 26.8728 120.47 27.1853C119.899 27.4929 119.186 27.6467 118.332 27.6467C117.707 27.6467 117.138 27.5295 116.625 27.2952C116.117 27.0608 115.68 26.7288 115.314 26.2991C114.948 25.8645 114.665 25.3445 114.464 24.739C114.269 24.1287 114.171 23.45 114.171 22.7029V21.6409C114.171 20.8938 114.269 20.2175 114.464 19.6121C114.665 19.0017 114.95 18.4792 115.321 18.0447C115.697 17.6101 116.149 17.2756 116.676 17.0413C117.204 16.8069 117.797 16.6897 118.456 16.6897C119.262 16.6897 119.943 16.8411 120.5 17.1438C121.056 17.4465 121.488 17.8665 121.796 18.4036C122.108 18.9358 122.301 19.5535 122.375 20.2566H120.968C120.9 19.7585 120.773 19.3313 120.587 18.9749C120.402 18.6135 120.138 18.3352 119.796 18.1399C119.455 17.9446 119.008 17.8469 118.456 17.8469C117.982 17.8469 117.565 17.9373 117.204 18.1179C116.847 18.2986 116.547 18.5549 116.303 18.887C116.063 19.219 115.883 19.6169 115.761 20.0808C115.639 20.5447 115.578 21.0598 115.578 21.6262V22.7029C115.578 23.2253 115.631 23.7161 115.739 24.175C115.851 24.634 116.02 25.0369 116.244 25.3835C116.469 25.7302 116.754 26.0037 117.101 26.2039C117.448 26.3992 117.858 26.4968 118.332 26.4968C118.932 26.4968 119.411 26.4016 119.767 26.2112C120.124 26.0208 120.392 25.7473 120.573 25.3909C120.758 25.0344 120.89 24.6072 120.968 24.1091ZM128.769 26.1453V22.0657C128.769 21.7532 128.705 21.4822 128.578 21.2527C128.456 21.0183 128.271 20.8376 128.021 20.7107C127.772 20.5837 127.465 20.5203 127.099 20.5203C126.757 20.5203 126.457 20.5789 126.198 20.696C125.944 20.8132 125.744 20.967 125.597 21.1575C125.456 21.3479 125.385 21.553 125.385 21.7727H124.03C124.03 21.4895 124.103 21.2087 124.25 20.9304C124.396 20.6521 124.606 20.4006 124.879 20.176C125.158 19.9465 125.49 19.7659 125.875 19.634C126.266 19.4973 126.701 19.429 127.179 19.429C127.755 19.429 128.263 19.5266 128.703 19.7219C129.147 19.9172 129.494 20.2126 129.743 20.6082C129.997 20.9988 130.124 21.4895 130.124 22.0803V25.7717C130.124 26.0354 130.146 26.3162 130.189 26.614C130.238 26.9119 130.309 27.1682 130.402 27.3831V27.5002H128.988C128.92 27.344 128.866 27.1365 128.827 26.8777C128.788 26.614 128.769 26.3699 128.769 26.1453ZM129.003 22.6956L129.018 23.6477H127.648C127.262 23.6477 126.918 23.6794 126.615 23.7429C126.312 23.8015 126.059 23.8918 125.854 24.0139C125.648 24.136 125.492 24.2898 125.385 24.4753C125.277 24.656 125.224 24.8684 125.224 25.1125C125.224 25.3616 125.28 25.5886 125.392 25.7937C125.504 25.9988 125.673 26.1624 125.897 26.2844C126.127 26.4016 126.408 26.4602 126.74 26.4602C127.155 26.4602 127.521 26.3723 127.838 26.1965C128.156 26.0208 128.407 25.8059 128.593 25.552C128.783 25.2981 128.886 25.0515 128.9 24.8123L129.479 25.4641C129.445 25.6692 129.352 25.8962 129.201 26.1453C129.049 26.3943 128.847 26.6335 128.593 26.863C128.344 27.0876 128.046 27.2756 127.699 27.427C127.357 27.5735 126.972 27.6467 126.542 27.6467C126.005 27.6467 125.534 27.5417 125.128 27.3318C124.728 27.1218 124.416 26.8411 124.191 26.4895C123.971 26.1331 123.861 25.7351 123.861 25.2957C123.861 24.8708 123.944 24.4973 124.11 24.175C124.276 23.8479 124.516 23.5769 124.828 23.3621C125.141 23.1423 125.517 22.9763 125.956 22.864C126.396 22.7517 126.886 22.6956 127.428 22.6956H129.003ZM135.573 19.5754V20.6155H131.288V19.5754H135.573ZM132.738 17.6492H134.093V25.5374C134.093 25.8059 134.135 26.0085 134.218 26.1453C134.301 26.282 134.408 26.3723 134.54 26.4163C134.672 26.4602 134.813 26.4822 134.965 26.4822C135.077 26.4822 135.194 26.4724 135.316 26.4529C135.443 26.4285 135.539 26.4089 135.602 26.3943L135.609 27.5002C135.502 27.5344 135.36 27.5662 135.185 27.5955C135.014 27.6296 134.806 27.6467 134.562 27.6467C134.23 27.6467 133.925 27.5808 133.646 27.449C133.368 27.3171 133.146 27.0974 132.98 26.7898C132.819 26.4773 132.738 26.0574 132.738 25.53V17.6492ZM140.333 26.5334C140.656 26.5334 140.954 26.4675 141.227 26.3357C141.5 26.2039 141.725 26.0232 141.901 25.7937C142.077 25.5593 142.177 25.2932 142.201 24.9954H143.49C143.466 25.4641 143.307 25.9011 143.014 26.3064C142.726 26.7068 142.348 27.0315 141.879 27.2805C141.41 27.5247 140.895 27.6467 140.333 27.6467C139.738 27.6467 139.218 27.5417 138.773 27.3318C138.334 27.1218 137.968 26.8337 137.675 26.4675C137.387 26.1013 137.169 25.6814 137.023 25.2078C136.881 24.7292 136.811 24.2239 136.811 23.6917V23.384C136.811 22.8518 136.881 22.3489 137.023 21.8752C137.169 21.3967 137.387 20.9744 137.675 20.6082C137.968 20.2419 138.334 19.9539 138.773 19.7439C139.218 19.5339 139.738 19.429 140.333 19.429C140.954 19.429 141.496 19.5559 141.959 19.8098C142.423 20.0588 142.787 20.4006 143.051 20.8352C143.319 21.2649 143.466 21.7532 143.49 22.3H142.201C142.177 21.9729 142.084 21.6775 141.923 21.4138C141.767 21.1501 141.552 20.9402 141.278 20.7839C141.01 20.6228 140.695 20.5422 140.333 20.5422C139.918 20.5422 139.569 20.6252 139.286 20.7913C139.008 20.9524 138.786 21.1721 138.62 21.4504C138.458 21.7239 138.341 22.0291 138.268 22.366C138.2 22.698 138.166 23.0374 138.166 23.384V23.6917C138.166 24.0383 138.2 24.3801 138.268 24.717C138.336 25.054 138.451 25.3591 138.612 25.6326C138.778 25.906 139 26.1257 139.279 26.2917C139.562 26.4529 139.914 26.5334 140.333 26.5334ZM146.369 16.2502V27.5002H145.014V16.2502H146.369ZM146.046 23.2375L145.482 23.2156C145.487 22.6736 145.568 22.1731 145.724 21.7141C145.88 21.2502 146.1 20.8474 146.383 20.5056C146.667 20.1638 147.003 19.9001 147.394 19.7146C147.79 19.5242 148.227 19.429 148.705 19.429C149.096 19.429 149.447 19.4827 149.76 19.5901C150.072 19.6926 150.338 19.8586 150.558 20.0881C150.783 20.3176 150.954 20.6155 151.071 20.9817C151.188 21.343 151.247 21.7849 151.247 22.3074V27.5002H149.884V22.2927C149.884 21.8777 149.823 21.5457 149.701 21.2966C149.579 21.0427 149.401 20.8596 149.167 20.7473C148.932 20.6301 148.644 20.5715 148.302 20.5715C147.965 20.5715 147.658 20.6423 147.379 20.7839C147.106 20.9255 146.869 21.1208 146.669 21.3699C146.474 21.6189 146.32 21.9045 146.208 22.2268C146.1 22.5442 146.046 22.8811 146.046 23.2375ZM156.095 22.4099V23.5232H152.521V22.4099H156.095ZM162.094 26.1453V22.0657C162.094 21.7532 162.03 21.4822 161.903 21.2527C161.781 21.0183 161.596 20.8376 161.347 20.7107C161.098 20.5837 160.79 20.5203 160.424 20.5203C160.082 20.5203 159.782 20.5789 159.523 20.696C159.269 20.8132 159.069 20.967 158.922 21.1575C158.781 21.3479 158.71 21.553 158.71 21.7727H157.355C157.355 21.4895 157.428 21.2087 157.575 20.9304C157.721 20.6521 157.931 20.4006 158.205 20.176C158.483 19.9465 158.815 19.7659 159.201 19.634C159.591 19.4973 160.026 19.429 160.504 19.429C161.081 19.429 161.588 19.5266 162.028 19.7219C162.472 19.9172 162.819 20.2126 163.068 20.6082C163.322 20.9988 163.449 21.4895 163.449 22.0803V25.7717C163.449 26.0354 163.471 26.3162 163.515 26.614C163.563 26.9119 163.634 27.1682 163.727 27.3831V27.5002H162.313C162.245 27.344 162.191 27.1365 162.152 26.8777C162.113 26.614 162.094 26.3699 162.094 26.1453ZM162.328 22.6956L162.343 23.6477H160.973C160.587 23.6477 160.243 23.6794 159.94 23.7429C159.638 23.8015 159.384 23.8918 159.179 24.0139C158.974 24.136 158.817 24.2898 158.71 24.4753C158.603 24.656 158.549 24.8684 158.549 25.1125C158.549 25.3616 158.605 25.5886 158.717 25.7937C158.83 25.9988 158.998 26.1624 159.223 26.2844C159.452 26.4016 159.733 26.4602 160.065 26.4602C160.48 26.4602 160.846 26.3723 161.164 26.1965C161.481 26.0208 161.732 25.8059 161.918 25.552C162.108 25.2981 162.211 25.0515 162.226 24.8123L162.804 25.4641C162.77 25.6692 162.677 25.8962 162.526 26.1453C162.375 26.3943 162.172 26.6335 161.918 26.863C161.669 27.0876 161.371 27.2756 161.024 27.427C160.683 27.5735 160.297 27.6467 159.867 27.6467C159.33 27.6467 158.859 27.5417 158.454 27.3318C158.053 27.1218 157.741 26.8411 157.516 26.4895C157.296 26.1331 157.187 25.7351 157.187 25.2957C157.187 24.8708 157.27 24.4973 157.436 24.175C157.602 23.8479 157.841 23.5769 158.153 23.3621C158.466 23.1423 158.842 22.9763 159.281 22.864C159.721 22.7517 160.211 22.6956 160.753 22.6956H162.328ZM167.052 16.2502V27.5002H165.69V16.2502H167.052ZM170.7 16.2502V27.5002H169.337V16.2502H170.7ZM72.6797 34.8362H76.21C77.0107 34.8362 77.687 34.9583 78.2388 35.2024C78.7954 35.4465 79.2178 35.8079 79.5059 36.2864C79.7988 36.76 79.9453 37.3435 79.9453 38.0369C79.9453 38.5251 79.8452 38.9719 79.645 39.3772C79.4497 39.7776 79.1665 40.1194 78.7954 40.4026C78.4292 40.6809 77.9897 40.8884 77.4771 41.0251L77.0815 41.179H73.7637L73.749 40.0291H76.2539C76.7617 40.0291 77.1841 39.9412 77.521 39.7654C77.8579 39.5847 78.1118 39.343 78.2827 39.0403C78.4536 38.7375 78.5391 38.4031 78.5391 38.0369C78.5391 37.6267 78.4585 37.2678 78.2974 36.9602C78.1362 36.6526 77.8823 36.4158 77.5356 36.2498C77.1938 36.0789 76.752 35.9934 76.21 35.9934H74.0933V45.5002H72.6797V34.8362ZM78.9126 45.5002L76.3198 40.6663L77.792 40.6589L80.4214 45.4124V45.5002H78.9126ZM85.0063 45.6467C84.4546 45.6467 83.9541 45.554 83.5049 45.3684C83.0605 45.178 82.6772 44.9119 82.355 44.5701C82.0376 44.2283 81.7935 43.823 81.6226 43.3542C81.4517 42.8855 81.3662 42.3728 81.3662 41.8162V41.5085C81.3662 40.864 81.4614 40.2903 81.6519 39.7874C81.8423 39.2795 82.1011 38.8499 82.4282 38.4983C82.7554 38.1467 83.1265 37.8806 83.5415 37.7C83.9565 37.5193 84.3862 37.429 84.8306 37.429C85.397 37.429 85.8853 37.5266 86.2954 37.7219C86.7104 37.9172 87.0498 38.1907 87.3135 38.5422C87.5771 38.8889 87.7725 39.2991 87.8994 39.7727C88.0264 40.2415 88.0898 40.7542 88.0898 41.3108V41.9187H82.1719V40.8127H86.7349V40.7102C86.7153 40.3586 86.6421 40.0168 86.5151 39.6848C86.3931 39.3528 86.1978 39.0793 85.9292 38.8645C85.6606 38.6497 85.2944 38.5422 84.8306 38.5422C84.5229 38.5422 84.2397 38.6082 83.981 38.74C83.7222 38.8669 83.5 39.0574 83.3145 39.3113C83.1289 39.5652 82.9849 39.8752 82.8823 40.2415C82.7798 40.6077 82.7285 41.03 82.7285 41.5085V41.8162C82.7285 42.1921 82.7798 42.5461 82.8823 42.8782C82.9897 43.2053 83.1436 43.4934 83.3438 43.7424C83.5488 43.9915 83.7954 44.1868 84.0835 44.3284C84.3765 44.47 84.7085 44.5408 85.0796 44.5408C85.5581 44.5408 85.9634 44.4431 86.2954 44.2478C86.6274 44.0525 86.918 43.7913 87.167 43.4641L87.9873 44.116C87.8164 44.3748 87.5991 44.6213 87.3354 44.8557C87.0718 45.0901 86.7471 45.2805 86.3613 45.427C85.9805 45.5735 85.5288 45.6467 85.0063 45.6467ZM91.0269 39.0989V48.5471H89.6646V37.5754H90.9097L91.0269 39.0989ZM96.3662 41.4719V41.6257C96.3662 42.2019 96.2979 42.7366 96.1611 43.2297C96.0244 43.718 95.8242 44.1428 95.5605 44.5042C95.3018 44.8655 94.9819 45.1462 94.6011 45.3464C94.2202 45.5466 93.7832 45.6467 93.29 45.6467C92.7871 45.6467 92.3428 45.5637 91.957 45.3977C91.5713 45.2317 91.2441 44.99 90.9756 44.6726C90.707 44.3552 90.4922 43.9744 90.3311 43.53C90.1748 43.0857 90.0674 42.5852 90.0088 42.0286V41.2083C90.0674 40.6223 90.1772 40.0974 90.3384 39.6335C90.4995 39.1697 90.7119 38.7742 90.9756 38.447C91.2441 38.115 91.5688 37.8635 91.9497 37.6926C92.3306 37.5168 92.77 37.429 93.2681 37.429C93.7661 37.429 94.208 37.5266 94.5938 37.7219C94.9795 37.9124 95.3042 38.1858 95.5679 38.5422C95.8315 38.8987 96.0293 39.3259 96.1611 39.824C96.2979 40.3171 96.3662 40.8665 96.3662 41.4719ZM95.0039 41.6257V41.4719C95.0039 41.0764 94.9624 40.7053 94.8794 40.3586C94.7964 40.0071 94.667 39.6995 94.4912 39.4358C94.3203 39.1672 94.1006 38.9573 93.832 38.8059C93.5635 38.6497 93.2437 38.5715 92.8726 38.5715C92.5308 38.5715 92.2329 38.6301 91.979 38.7473C91.73 38.8645 91.5176 39.0232 91.3418 39.2234C91.166 39.4187 91.022 39.6433 90.9097 39.8972C90.8022 40.1462 90.7217 40.405 90.668 40.6736V42.5706C90.7656 42.9124 90.9023 43.2346 91.0781 43.5374C91.2539 43.8352 91.4883 44.0769 91.7812 44.2625C92.0742 44.4431 92.4429 44.5334 92.8872 44.5334C93.2534 44.5334 93.5684 44.4578 93.832 44.3064C94.1006 44.1501 94.3203 43.9377 94.4912 43.6692C94.667 43.4006 94.7964 43.093 94.8794 42.7463C94.9624 42.3948 95.0039 42.0212 95.0039 41.6257ZM97.7358 41.6257V41.4573C97.7358 40.886 97.8188 40.3562 97.9849 39.8679C98.1509 39.3748 98.3901 38.9475 98.7026 38.5862C99.0151 38.22 99.3936 37.9368 99.8379 37.7366C100.282 37.5315 100.78 37.429 101.332 37.429C101.889 37.429 102.389 37.5315 102.833 37.7366C103.283 37.9368 103.664 38.22 103.976 38.5862C104.293 38.9475 104.535 39.3748 104.701 39.8679C104.867 40.3562 104.95 40.886 104.95 41.4573V41.6257C104.95 42.197 104.867 42.7268 104.701 43.2151C104.535 43.7034 104.293 44.1306 103.976 44.4968C103.664 44.8582 103.285 45.1414 102.841 45.3464C102.401 45.5466 101.903 45.6467 101.347 45.6467C100.79 45.6467 100.29 45.5466 99.8452 45.3464C99.4009 45.1414 99.02 44.8582 98.7026 44.4968C98.3901 44.1306 98.1509 43.7034 97.9849 43.2151C97.8188 42.7268 97.7358 42.197 97.7358 41.6257ZM99.0908 41.4573V41.6257C99.0908 42.0212 99.1372 42.3948 99.23 42.7463C99.3228 43.093 99.4619 43.4006 99.6475 43.6692C99.8379 43.9377 100.075 44.1501 100.358 44.3064C100.641 44.4578 100.971 44.5334 101.347 44.5334C101.718 44.5334 102.042 44.4578 102.321 44.3064C102.604 44.1501 102.838 43.9377 103.024 43.6692C103.209 43.4006 103.349 43.093 103.441 42.7463C103.539 42.3948 103.588 42.0212 103.588 41.6257V41.4573C103.588 41.0667 103.539 40.698 103.441 40.3513C103.349 39.9998 103.207 39.6897 103.017 39.4211C102.831 39.1477 102.597 38.9329 102.313 38.7766C102.035 38.6204 101.708 38.5422 101.332 38.5422C100.961 38.5422 100.634 38.6204 100.351 38.7766C100.072 38.9329 99.8379 39.1477 99.6475 39.4211C99.4619 39.6897 99.3228 39.9998 99.23 40.3513C99.1372 40.698 99.0908 41.0667 99.0908 41.4573ZM112.436 44.387V45.5002H106.671V44.387H112.436ZM112.223 38.5349L106.979 45.5002H106.151V44.5042L111.359 37.5754H112.223V38.5349ZM111.623 37.5754V38.696H106.21V37.5754H111.623ZM115.446 37.5754V45.5002H114.083V37.5754H115.446ZM113.981 35.4734C113.981 35.2537 114.047 35.0681 114.179 34.9167C114.315 34.7654 114.516 34.6897 114.779 34.6897C115.038 34.6897 115.236 34.7654 115.373 34.9167C115.514 35.0681 115.585 35.2537 115.585 35.4734C115.585 35.6833 115.514 35.864 115.373 36.0154C115.236 36.1619 115.038 36.2351 114.779 36.2351C114.516 36.2351 114.315 36.1619 114.179 36.0154C114.047 35.864 113.981 35.6833 113.981 35.4734ZM120.939 37.5754V38.6155H116.654V37.5754H120.939ZM118.104 35.6492H119.459V43.5374C119.459 43.8059 119.501 44.0085 119.584 44.1453C119.667 44.282 119.774 44.3723 119.906 44.4163C120.038 44.4602 120.18 44.4822 120.331 44.4822C120.443 44.4822 120.561 44.4724 120.683 44.4529C120.81 44.4285 120.905 44.4089 120.968 44.3943L120.976 45.5002C120.868 45.5344 120.727 45.5662 120.551 45.5955C120.38 45.6296 120.172 45.6467 119.928 45.6467C119.596 45.6467 119.291 45.5808 119.013 45.449C118.734 45.3171 118.512 45.0974 118.346 44.7898C118.185 44.4773 118.104 44.0574 118.104 43.53V35.6492ZM127.201 44.1453V40.0657C127.201 39.7532 127.138 39.4822 127.011 39.2527C126.889 39.0183 126.703 38.8376 126.454 38.7107C126.205 38.5837 125.897 38.5203 125.531 38.5203C125.189 38.5203 124.889 38.5789 124.63 38.696C124.376 38.8132 124.176 38.967 124.03 39.1575C123.888 39.3479 123.817 39.553 123.817 39.7727H122.462C122.462 39.4895 122.536 39.2087 122.682 38.9304C122.829 38.6521 123.039 38.4006 123.312 38.176C123.59 37.9465 123.922 37.7659 124.308 37.634C124.699 37.4973 125.133 37.429 125.612 37.429C126.188 37.429 126.696 37.5266 127.135 37.7219C127.58 37.9172 127.926 38.2126 128.175 38.6082C128.429 38.9988 128.556 39.4895 128.556 40.0803V43.7717C128.556 44.0354 128.578 44.3162 128.622 44.614C128.671 44.9119 128.742 45.1682 128.834 45.3831V45.5002H127.421C127.353 45.344 127.299 45.1365 127.26 44.8777C127.221 44.614 127.201 44.3699 127.201 44.1453ZM127.436 40.6956L127.45 41.6477H126.081C125.695 41.6477 125.351 41.6794 125.048 41.7429C124.745 41.8015 124.491 41.8918 124.286 42.0139C124.081 42.136 123.925 42.2898 123.817 42.4753C123.71 42.656 123.656 42.8684 123.656 43.1125C123.656 43.3616 123.712 43.5886 123.825 43.7937C123.937 43.9988 124.105 44.1624 124.33 44.2844C124.56 44.4016 124.84 44.4602 125.172 44.4602C125.587 44.4602 125.954 44.3723 126.271 44.1965C126.588 44.0208 126.84 43.8059 127.025 43.552C127.216 43.2981 127.318 43.0515 127.333 42.8123L127.912 43.4641C127.877 43.6692 127.785 43.8962 127.633 44.1453C127.482 44.3943 127.279 44.6335 127.025 44.863C126.776 45.0876 126.479 45.2756 126.132 45.427C125.79 45.5735 125.404 45.6467 124.975 45.6467C124.438 45.6467 123.966 45.5417 123.561 45.3318C123.161 45.1218 122.848 44.8411 122.624 44.4895C122.404 44.1331 122.294 43.7351 122.294 43.2957C122.294 42.8708 122.377 42.4973 122.543 42.175C122.709 41.8479 122.948 41.5769 123.261 41.3621C123.573 41.1423 123.949 40.9763 124.389 40.864C124.828 40.7517 125.319 40.6956 125.861 40.6956H127.436ZM125.011 36.4036L126.432 34.2502H128.065L126.103 36.4036H125.011ZM132.042 38.8206V45.5002H130.688V37.5754H132.006L132.042 38.8206ZM134.518 37.5315L134.511 38.7913C134.398 38.7668 134.291 38.7522 134.188 38.7473C134.091 38.7375 133.979 38.7327 133.852 38.7327C133.539 38.7327 133.263 38.7815 133.024 38.8792C132.785 38.9768 132.582 39.1135 132.416 39.2893C132.25 39.4651 132.118 39.675 132.021 39.9192C131.928 40.1584 131.867 40.4221 131.837 40.7102L131.457 40.9299C131.457 40.4514 131.503 40.0022 131.596 39.5823C131.693 39.1624 131.842 38.7913 132.042 38.469C132.243 38.1418 132.497 37.8879 132.804 37.7073C133.117 37.5217 133.488 37.429 133.917 37.429C134.015 37.429 134.127 37.4412 134.254 37.4656C134.381 37.4851 134.469 37.5071 134.518 37.5315ZM131.53 34.2576L132.636 35.5027L133.742 34.2576H134.914V34.3308L133.053 36.3376H132.218L130.387 34.3308V34.2576H131.53Z" fill="#012527"/>
</svg>
